<svg xmlns="http://www.w3.org/2000/svg" width="264" height="50">
  <g fill="none" fill-rule="evenodd">
    <path d="M63.132 35.962c4.39 0 7.745-.888 10.064-2.664 2.319-1.776 3.478-4.243 3.478-7.4 0-2.812-.839-5.044-2.516-6.697-1.677-1.653-4.193-2.898-7.548-3.737l-5.106-1.258c-1.727-.395-2.96-.987-3.7-1.776-.74-.79-1.11-1.751-1.11-2.886 0-1.53.654-2.713 1.961-3.552s3.071-1.258 5.291-1.258 4.144.345 5.772 1.036c1.628.69 2.886 1.332 3.774 1.924a2.985 2.985 0 001.295-1.11c.32-.493.481-1.06.481-1.702 0-1.332-1.06-2.504-3.182-3.515C69.965.356 67.177-.15 63.724-.15c-2.17 0-4.058.259-5.661.777-1.603.518-2.948 1.221-4.033 2.109-1.085.888-1.887 1.924-2.405 3.108a9.136 9.136 0 00-.777 3.7c0 2.368.69 4.304 2.072 5.809 1.381 1.505 3.577 2.652 6.586 3.441l6.142 1.628c3.404.839 5.106 2.664 5.106 5.476 0 3.453-2.565 5.18-7.696 5.18-2.27 0-4.292-.382-6.068-1.147-1.776-.765-3.33-1.64-4.662-2.627-.641.395-1.122.863-1.443 1.406a3.298 3.298 0 00-.481 1.702c0 .69.308 1.369.925 2.035.617.666 1.48 1.258 2.59 1.776 1.11.518 2.454.937 4.033 1.258 1.579.32 3.305.481 5.18.481zm47.918 0c2.812 0 5.217-.296 7.215-.888 1.998-.592 3.564-1.209 4.699-1.85 1.036-.592 1.69-1.196 1.96-1.813.272-.617.408-1.443.408-2.479V3.18c0-1.825-1.06-2.738-3.182-2.738-.543 0-1.073.062-1.591.185s-.9.234-1.147.333v28.194c-.79.444-1.875.876-3.256 1.295-1.381.42-3.059.629-5.032.629-2.96 0-5.279-.678-6.956-2.035-1.677-1.357-2.516-3.638-2.516-6.845V3.18c0-1.825-1.036-2.738-3.108-2.738-.592 0-1.147.062-1.665.185s-.9.234-1.147.333v21.534c0 4.637 1.32 8.041 3.959 10.212 2.64 2.17 6.426 3.256 11.359 3.256zm38.668-.592a6.71 6.71 0 001.628-.185 9.248 9.248 0 001.11-.333V7.176c1.134-.641 2.565-1.196 4.292-1.665 1.726-.469 3.724-.703 5.994-.703.789 0 1.578.05 2.368.148.789.099 1.43.197 1.924.296.246-.296.444-.654.592-1.073.148-.42.222-.876.222-1.369 0-1.973-1.974-2.96-5.92-2.96-2.763 0-5.242.308-7.437.925-2.196.617-3.935 1.344-5.217 2.183-.987.641-1.69 1.295-2.11 1.961-.419.666-.628 1.566-.628 2.701v25.086c0 1.776 1.06 2.664 3.182 2.664zm46.956 14.578c2.269 0 4.39-.247 6.364-.74 1.973-.493 3.687-1.27 5.143-2.331 1.455-1.06 2.59-2.442 3.404-4.144.814-1.702 1.22-3.786 1.22-6.253V6.732c0-.888-.234-1.64-.702-2.257-.47-.617-1.073-1.172-1.813-1.665-1.283-.839-2.874-1.542-4.773-2.109-1.9-.567-3.984-.851-6.253-.851-2.516 0-4.81.358-6.882 1.073s-3.86 1.788-5.365 3.219c-1.505 1.43-2.677 3.207-3.515 5.328-.84 2.121-1.258 4.588-1.258 7.4 0 3.108.431 5.747 1.295 7.918.863 2.17 2.022 3.934 3.478 5.291a13.285 13.285 0 005.069 2.96c1.924.617 3.97.925 6.142.925 2.022 0 3.761-.247 5.217-.74 1.455-.493 2.602-1.085 3.44-1.776v4.662c0 3.108-.875 5.365-2.626 6.771-1.752 1.406-4.28 2.109-7.585 2.109-2.22 0-4.268-.333-6.142-.999-1.875-.666-3.33-1.394-4.366-2.183a3.19 3.19 0 00-1.221 1.073c-.321.469-.481 1.048-.481 1.739 0 1.283.74 2.343 2.22 3.182.64.395 1.837.851 3.589 1.369 1.75.518 3.885.777 6.4.777zm2.22-20.868c-1.48 0-2.874-.222-4.181-.666a8.512 8.512 0 01-3.404-2.146c-.962-.987-1.715-2.257-2.257-3.811-.543-1.554-.814-3.441-.814-5.661 0-3.996.999-7.005 2.997-9.028 1.998-2.023 4.674-3.034 8.029-3.034 1.726 0 3.219.21 4.477.629 1.258.42 2.306.9 3.145 1.443v19.24c-.84.79-1.887 1.492-3.145 2.109s-2.874.925-4.847.925zm51.617 6.882c1.628 0 3.145-.148 4.551-.444 1.406-.296 2.64-.69 3.7-1.184 1.061-.493 1.9-1.06 2.516-1.702.617-.641.925-1.307.925-1.998 0-1.184-.592-2.121-1.776-2.812-.986.79-2.318 1.53-3.996 2.22-1.677.69-3.552 1.036-5.624 1.036-7.153 0-11.396-3.231-12.728-9.694l22.792-3.182c.888-.099 1.58-.382 2.072-.851.494-.469.74-1.246.74-2.331 0-2.22-.382-4.255-1.147-6.105-.764-1.85-1.825-3.453-3.182-4.81-1.356-1.357-2.972-2.405-4.847-3.145-1.874-.74-3.922-1.11-6.142-1.11-2.368 0-4.563.407-6.586 1.221-2.022.814-3.761 1.986-5.217 3.515-1.455 1.53-2.59 3.392-3.404 5.587-.814 2.195-1.22 4.699-1.22 7.511 0 5.97 1.664 10.508 4.994 13.616 3.33 3.108 7.857 4.662 13.58 4.662zM237.71 16.796c.1-3.897 1.135-6.894 3.108-8.991 1.974-2.097 4.465-3.145 7.474-3.145 2.96 0 5.267.876 6.92 2.627 1.652 1.751 2.602 3.984 2.848 6.697l-20.35 2.812z" fill="#FEFEFF" fill-rule="nonzero"/>
    <path d="M5 7h30v1a5 5 0 01-5 5H0v-1a5 5 0 015-5zM18 23h17v1a5 5 0 01-5 5H13v-1a5 5 0 015-5z" fill="#8CA7F6"/>
  </g>
</svg>
